<?xml version="1.0" encoding="utf-8"?>
<!-- Generator: Adobe Illustrator 23.0.3, SVG Export Plug-In . SVG Version: 6.00 Build 0)  -->
<svg version="1.1" id="Capa_1" xmlns="http://www.w3.org/2000/svg" xmlns:xlink="http://www.w3.org/1999/xlink" x="0px" y="0px"
	 viewBox="0 0 145 40" style="enable-background:new 0 0 145 40;" xml:space="preserve">
<style type="text/css">
	.st0{fill:#3C71A9;}
	.st1{fill:#E74426;}
	.st2{fill:#1A171B;}
</style>
<g>
	<path class="st0" d="M111.6,30.6v-5c0-13.1-8.2-16.4-15.9-16.4c-6.4,0-15.2,2.4-19.8,5.8V0.3H63.2v30.3h12.7v-6.8
		c3.4-2.5,11.1-4.7,15.4-4.7c6.7,0,7.6,4.7,7.6,9.7v1.8H111.6z"/>
	<path class="st0" d="M141,0c-13.9,1.3-22.1,11.1-22.1,20.6c0,3.5,1.1,7,3.1,10H137c-3.7-2.2-5.8-6.1-5.8-10.1
		c0-4.9,3.5-10.1,9.8-11.4V0z"/>
	<path class="st0" d="M54.4,0C40.5,1.3,32.3,11.1,32.3,20.6c0,3.5,1.1,7,3.1,10h15.1c-3.7-2.2-5.8-6.1-5.8-10.1
		c0-4.9,3.5-10.1,9.8-11.4V0z"/>
	<path class="st1" d="M26.8,0C12.9,1.3,4.7,11.1,4.7,20.6c0,3.5,1.1,7,3.1,10h15.1c-3.7-2.2-5.8-6.1-5.8-10.1
		c0-4.9,3.5-10.1,9.8-11.4V0z"/>
	<path class="st2" d="M10,39.7l-0.2-0.4c-0.3,0.1-0.6,0.2-0.9,0.2c-0.8,0-1.3-0.6-1.3-1.4c0-0.8,0.5-1.4,1.3-1.4
		c0.4,0,0.6,0.1,0.9,0.3l0-0.6c-0.2-0.1-0.5-0.2-1-0.2c-1.2,0-1.9,0.9-1.9,2C7,39.2,7.7,40,8.8,40C9.2,40,9.6,39.9,10,39.7
		 M14.6,39.9l-1.5-3.8h-0.4l-1.4,3.8h0.6l0.3-1h1.4l0.4,1H14.6z M13.5,38.5h-1l0.4-1c0.1-0.2,0.1-0.3,0.1-0.5h0
		c0,0.1,0.1,0.3,0.1,0.5L13.5,38.5z M19.8,39.9v-3.8h-0.6l-1,1.6c-0.1,0.2-0.2,0.3-0.2,0.4h0c-0.1-0.1-0.1-0.2-0.2-0.4l-1.1-1.6
		h-0.6v3.8h0.6v-2.4c0-0.1,0-0.2,0-0.4h0c0.1,0.2,0.2,0.3,0.2,0.4l0.9,1.4h0.3l0.8-1.3c0.1-0.1,0.2-0.2,0.2-0.4h0c0,0.2,0,0.3,0,0.4
		v2.4H19.8z M24.6,39.9l-1.5-3.8h-0.4l-1.4,3.8h0.6l0.3-1h1.4l0.4,1H24.6z M23.4,38.5h-1l0.4-1c0.1-0.2,0.1-0.3,0.1-0.5h0
		c0,0.1,0.1,0.3,0.1,0.5L23.4,38.5z M28.8,39.9c-0.6-1-1-1.6-1.1-1.7v0c0.4-0.1,0.7-0.5,0.7-1c0-0.6-0.4-1-1.3-1h-0.9v3.8h0.6v-1.5
		h0.3c0.1,0,0.4,0.6,1,1.5H28.8z M27.8,37.3c0,0.4-0.3,0.7-0.7,0.7h-0.3v-1.2h0.3C27.6,36.7,27.8,37,27.8,37.3 M33.3,39.9l-1.5-3.8
		h-0.4L30,39.9h0.6l0.3-1h1.4l0.4,1H33.3z M32.1,38.5h-1l0.4-1c0.1-0.2,0.1-0.3,0.1-0.5h0c0,0.1,0.1,0.3,0.1,0.5L32.1,38.5z
		 M40,39.7l-0.2-0.4c-0.3,0.1-0.6,0.2-0.9,0.2c-0.8,0-1.3-0.6-1.3-1.4c0-0.8,0.5-1.4,1.3-1.4c0.4,0,0.6,0.1,0.9,0.3l0-0.6
		c-0.2-0.1-0.5-0.2-1-0.2c-1.2,0-1.9,0.9-1.9,2c0,1.1,0.7,1.9,1.8,1.9C39.2,40,39.6,39.9,40,39.7 M44.6,39.9v-3.8h-0.6v1.6h-1.9
		v-1.6h-0.6v3.8h0.6v-1.6h1.9v1.6H44.6z M47.1,36.2h-0.6v3.8h0.6V36.2z M50.9,39.9v-0.5h-1.3v-3.2H49v3.8H50.9z M54.4,39.9v-0.5H53
		v-1.2h1.2v-0.5H53v-1.1h1.2l0.2-0.5h-2v3.8H54.4z M59.4,39.9v-3.8h-0.6v2.3c0,0.2,0,0.4,0,0.5h0c-0.1-0.2-0.2-0.3-0.4-0.6l-1.7-2.2
		h-0.6v3.8h0.6v-2.4c0-0.2,0-0.4,0-0.5h0c0.1,0.2,0.2,0.3,0.4,0.5l1.7,2.3H59.4z M64.2,39.9l-1.5-3.8h-0.4l-1.4,3.8h0.6l0.3-1h1.4
		l0.4,1H64.2z M63,38.5h-1l0.4-1c0.1-0.2,0.1-0.3,0.1-0.5h0c0,0.1,0.1,0.3,0.1,0.5L63,38.5z M71.2,38c0-1.1-0.7-1.8-2-1.8h-1v3.8h1
		C70.5,39.9,71.2,39.1,71.2,38 M70.6,38c0,0.7-0.4,1.4-1.4,1.4h-0.4v-2.7h0.4C70.1,36.7,70.6,37.3,70.6,38 M74.9,39.9v-0.5h-1.4
		v-1.2h1.2v-0.5h-1.2v-1.1h1.2l0.2-0.5h-2v3.8H74.9z M80.9,39.9v-0.5h-1.3v-3.2H79v3.8H80.9z M85.4,39.9L84,36.2h-0.4l-1.4,3.8h0.6
		l0.3-1h1.4l0.4,1H85.4z M84.2,38.5h-1l0.4-1c0.1-0.2,0.1-0.3,0.1-0.5h0c0,0.1,0.1,0.3,0.1,0.5L84.2,38.5z M92.1,39.7L92,39.2
		c-0.3,0.1-0.6,0.2-0.9,0.2c-0.8,0-1.3-0.6-1.3-1.4c0-0.8,0.5-1.4,1.3-1.4c0.4,0,0.6,0.1,0.9,0.3l0-0.6c-0.2-0.1-0.5-0.2-1-0.2
		c-1.2,0-1.9,0.9-1.9,2c0,1.1,0.7,1.9,1.8,1.9C91.4,40,91.8,39.9,92.1,39.7 M93.6,38.1c0,0.6,0.2,1.1,0.6,1.4
		c0.3,0.3,0.8,0.5,1.3,0.5c0.5,0,1-0.2,1.3-0.5c0.3-0.3,0.5-0.8,0.5-1.4c0-0.5-0.2-1-0.5-1.3c-0.3-0.4-0.8-0.6-1.4-0.6
		c-0.5,0-1,0.2-1.3,0.5C93.8,37,93.6,37.5,93.6,38.1 M96.7,38.1c0,0.9-0.5,1.4-1.2,1.4c-0.7,0-1.2-0.5-1.2-1.4
		c0-0.9,0.5-1.4,1.2-1.4C96.2,36.7,96.7,37.2,96.7,38.1 M102.2,39.9v-3.8h-0.6v2.3c0,0.2,0,0.4,0,0.5h0c-0.1-0.2-0.2-0.3-0.4-0.6
		l-1.7-2.2H99v3.8h0.6v-2.4c0-0.2,0-0.4,0-0.5h0c0.1,0.2,0.2,0.3,0.4,0.5l1.7,2.3H102.2z M106.3,39c0-1.2-1.6-1.1-1.6-1.9
		c0-0.3,0.3-0.4,0.6-0.4c0.3,0,0.6,0.1,0.8,0.3l0-0.6c-0.2-0.1-0.5-0.2-0.9-0.2c-0.7,0-1.2,0.5-1.2,1c0,0.3,0.1,0.5,0.3,0.7
		c0.4,0.5,1.3,0.6,1.3,1.2c0,0.3-0.4,0.5-0.7,0.5c-0.3,0-0.6-0.1-0.8-0.3l-0.2,0.5c0.2,0.2,0.6,0.3,1.1,0.3
		C105.7,40,106.3,39.6,106.3,39 M110.5,36.2h-2.8v0.5h1.1v3.2h0.6v-3.2h1L110.5,36.2z M114.6,39.9c-0.6-1-1-1.6-1.1-1.7v0
		c0.4-0.1,0.7-0.5,0.7-1c0-0.6-0.4-1-1.3-1h-0.9v3.8h0.6v-1.5h0.3c0.1,0,0.4,0.6,1,1.5H114.6z M113.5,37.3c0,0.4-0.3,0.7-0.7,0.7
		h-0.3v-1.2h0.3C113.3,36.7,113.5,37,113.5,37.3 M118.9,38.6v-2.4h-0.6v2.4c0,0.3-0.1,0.5-0.2,0.7c-0.1,0.2-0.4,0.2-0.7,0.2
		c-0.3,0-0.5-0.1-0.6-0.2c-0.2-0.2-0.2-0.4-0.2-0.7v-2.4H116v2.4c0,0.4,0.1,0.8,0.4,1.1c0.2,0.2,0.6,0.4,1.1,0.4
		c0.5,0,0.9-0.1,1.1-0.4C118.8,39.3,118.9,39,118.9,38.6 M123.6,39.7l-0.2-0.4c-0.3,0.1-0.6,0.2-0.9,0.2c-0.8,0-1.3-0.6-1.3-1.4
		c0-0.8,0.5-1.4,1.3-1.4c0.4,0,0.6,0.1,0.9,0.3l0-0.6c-0.2-0.1-0.5-0.2-1-0.2c-1.2,0-1.9,0.9-1.9,2c0,1.1,0.7,1.9,1.8,1.9
		C122.8,40,123.2,39.9,123.6,39.7 M128,39.7l-0.2-0.4c-0.3,0.1-0.6,0.2-0.9,0.2c-0.8,0-1.3-0.6-1.3-1.4c0-0.8,0.5-1.4,1.3-1.4
		c0.4,0,0.6,0.1,0.9,0.3l0-0.6c-0.2-0.1-0.5-0.2-1-0.2c-1.2,0-1.9,0.9-1.9,2c0,1.1,0.7,1.9,1.8,1.9C127.3,40,127.6,39.9,128,39.7
		 M130.2,36.2h-0.6v3.8h0.6V36.2z M131.9,38.1c0,0.6,0.2,1.1,0.6,1.4c0.3,0.3,0.8,0.5,1.3,0.5c0.5,0,1-0.2,1.3-0.5
		c0.3-0.3,0.5-0.8,0.5-1.4c0-0.5-0.2-1-0.5-1.3c-0.3-0.4-0.8-0.6-1.4-0.6c-0.5,0-1,0.2-1.3,0.5C132.1,37,131.9,37.5,131.9,38.1
		 M135,38.1c0,0.9-0.5,1.4-1.2,1.4c-0.7,0-1.2-0.5-1.2-1.4c0-0.9,0.5-1.4,1.2-1.4C134.6,36.7,135,37.2,135,38.1 M140.6,39.9v-3.8
		H140v2.3c0,0.2,0,0.4,0,0.5h0c-0.1-0.2-0.2-0.3-0.4-0.6l-1.7-2.2h-0.6v3.8h0.6v-2.4c0-0.2,0-0.4,0-0.5h0c0.1,0.2,0.2,0.3,0.4,0.5
		l1.7,2.3H140.6z"/>
</g>
</svg>
